<svg width="800" height="600" viewBox="0 0 800 600" fill="none" xmlns="http://www.w3.org/2000/svg">
  <rect width="800" height="600" rx="20" fill="#F5F7FA"/>
  <rect x="100" y="100" width="600" height="400" rx="10" fill="#E1E8ED"/>
  
  <!-- Dashboard UI Elements -->
  <rect x="120" y="130" width="560" height="60" rx="8" fill="#FFFFFF"/>
  <rect x="140" y="150" width="120" height="20" rx="4" fill="#0077B6"/>
  <rect x="280" y="150" width="80" height="20" rx="4" fill="#E1E8ED"/>
  <rect x="380" y="150" width="80" height="20" rx="4" fill="#E1E8ED"/>
  <rect x="480" y="150" width="80" height="20" rx="4" fill="#E1E8ED"/>
  <rect x="580" y="150" width="80" height="20" rx="4" fill="#E1E8ED"/>
  
  <!-- Main Content Area -->
  <rect x="120" y="210" width="360" height="270" rx="8" fill="#FFFFFF"/>
  <rect x="140" y="230" width="200" height="30" rx="4" fill="#0077B6"/>
  <rect x="140" y="270" width="320" height="10" rx="2" fill="#E1E8ED"/>
  <rect x="140" y="290" width="320" height="10" rx="2" fill="#E1E8ED"/>
  <rect x="140" y="310" width="320" height="10" rx="2" fill="#E1E8ED"/>
  <rect x="140" y="330" width="320" height="10" rx="2" fill="#E1E8ED"/>
  <rect x="140" y="350" width="320" height="10" rx="2" fill="#E1E8ED"/>
  
  <!-- RFQ Cards -->
  <rect x="140" y="380" width="150" height="80" rx="8" fill="#F0F4F8"/>
  <rect x="150" y="390" width="80" height="15" rx="2" fill="#0077B6"/>
  <rect x="150" y="415" width="130" height="10" rx="2" fill="#E1E8ED"/>
  <rect x="150" y="435" width="130" height="10" rx="2" fill="#E1E8ED"/>
  
  <rect x="300" y="380" width="150" height="80" rx="8" fill="#F0F4F8"/>
  <rect x="310" y="390" width="80" height="15" rx="2" fill="#0077B6"/>
  <rect x="310" y="415" width="130" height="10" rx="2" fill="#E1E8ED"/>
  <rect x="310" y="435" width="130" height="10" rx="2" fill="#E1E8ED"/>
  
  <!-- Sidebar/Analytics -->
  <rect x="500" y="210" width="180" height="270" rx="8" fill="#FFFFFF"/>
  <rect x="520" y="230" width="140" height="20" rx="4" fill="#0077B6"/>
  
  <!-- Chart Elements -->
  <rect x="520" y="270" width="140" height="80" rx="4" fill="#F0F4F8"/>
  <path d="M520 330 L540 310 L560 320 L580 290 L600 300 L620 270 L640 290 L660 280" stroke="#0077B6" stroke-width="3"/>
  
  <!-- Pie Chart -->
  <circle cx="590" cy="400" r="40" fill="#F0F4F8"/>
  <path d="M590 400 L590 360 A40 40 0 0 1 625 415 Z" fill="#0077B6"/>
  <path d="M590 400 L625 415 A40 40 0 0 1 555 430 Z" fill="#00A8E8"/>
  <path d="M590 400 L555 430 A40 40 0 0 1 590 360 Z" fill="#003459"/>
  
  <!-- Blockchain Elements -->
  <rect x="520" y="450" width="140" height="10" rx="2" fill="#E1E8ED"/>
  <rect x="520" y="470" width="140" height="10" rx="2" fill="#E1E8ED"/>
  
  <!-- Mobile Device Overlay -->
  <rect x="650" y="320" width="100" height="180" rx="10" fill="#003459"/>
  <rect x="660" y="330" width="80" height="140" rx="4" fill="#FFFFFF"/>
  <rect x="670" y="340" width="60" height="10" rx="2" fill="#0077B6"/>
  <rect x="670" y="360" width="60" height="5" rx="1" fill="#E1E8ED"/>
  <rect x="670" y="370" width="60" height="5" rx="1" fill="#E1E8ED"/>
  <rect x="670" y="380" width="60" height="5" rx="1" fill="#E1E8ED"/>
  <rect x="670" y="400" width="60" height="30" rx="4" fill="#F0F4F8"/>
  <rect x="670" y="440" width="60" height="20" rx="4" fill="#0077B6"/>
  <circle cx="700" cy="480" r="5" fill="#E1E8ED"/>
</svg>
