<svg width="200" height="200" viewBox="0 0 200 200" fill="none" xmlns="http://www.w3.org/2000/svg">
  <rect width="200" height="200" rx="40" fill="#0077B6"/>
  <path d="M50 50H90V90C90 95.5228 85.5228 100 80 100H50V50Z" fill="white"/>
  <path d="M50 110H80C85.5228 110 90 114.477 90 120V150H50V110Z" fill="white"/>
  <path d="M110 50H150V90H110V50Z" fill="white"/>
  <path d="M110 110H150V150H110V110Z" fill="white"/>
  <path d="M100 50H110V150H100V50Z" fill="white"/>
  <path d="M65 65H75V75H65V65Z" fill="#0077B6"/>
  <path d="M65 125H75V135H65V125Z" fill="#0077B6"/>
  <path d="M125 65H135V75H125V65Z" fill="#0077B6"/>
  <path d="M125 125H135V135H125V125Z" fill="#0077B6"/>
</svg>
