<?xml version="1.0" encoding="UTF-8" standalone="no"?>
<svg width="800px" height="600px" viewBox="0 0 800 600" version="1.1" xmlns="http://www.w3.org/2000/svg" xmlns:xlink="http://www.w3.org/1999/xlink">
  <title>Bell24h Hero Illustration</title>
  <g stroke="none" fill="none">
    <rect fill="#1976D2" x="0" y="0" width="800" height="600"></rect>
    <circle fill="#FFFFFF" opacity="0.2" cx="400" cy="300" r="200"></circle>
    <circle fill="#FFFFFF" opacity="0.3" cx="400" cy="300" r="150"></circle>
    <circle fill="#FFFFFF" opacity="0.4" cx="400" cy="300" r="100"></circle>
    <circle fill="#FFFFFF" opacity="0.6" cx="400" cy="300" r="50"></circle>
    <g transform="translate(325, 225)">
      <path d="M75,0 C116.421,0 150,33.579 150,75 C150,116.421 116.421,150 75,150 C33.579,150 0,116.421 0,75 C0,33.579 33.579,0 75,0" fill="#FFFFFF"></path>
      <path d="M75,20 C105.376,20 130,44.624 130,75 C130,105.376 105.376,130 75,130 C44.624,130 20,105.376 20,75 C20,44.624 44.624,20 75,20" fill="#1976D2"></path>
    </g>
    <text font-family="Arial" font-size="48" font-weight="bold" fill="#FFFFFF" x="260" y="450">
      Bell24h B2B Marketplace
    </text>
    <text font-family="Arial" font-size="28" font-weight="normal" fill="#FFFFFF" x="250" y="500">
      Connecting Global Businesses
    </text>
  </g>
</svg>
