<?xml version="1.0" encoding="UTF-8"?>
<svg width="120" height="40" viewBox="0 0 120 40" xmlns="http://www.w3.org/2000/svg">
  <defs>
    <linearGradient id="logoGradient" x1="0%" y1="0%" x2="100%" y2="100%">
      <stop offset="0%" stop-color="#FFFFFF" />
      <stop offset="100%" stop-color="#F0F0F0" />
    </linearGradient>
  </defs>
  <g fill="url(#logoGradient)">
    <path d="M10,8 C14.418278,8 18,11.581722 18,16 L18,32 C18,33.1045695 17.1045695,34 16,34 L4,34 C2.8954305,34 2,33.1045695 2,32 L2,16 C2,11.581722 5.581722,8 10,8 Z M10,12 C7.790861,12 6,13.790861 6,16 L6,30 L14,30 L14,16 C14,13.790861 12.209139,12 10,12 Z" />
    <path d="M28,6 C32.418278,6 36,9.581722 36,14 L36,34 L32,34 L32,14 C32,11.790861 30.209139,10 28,10 C25.790861,10 24,11.790861 24,14 L24,34 L20,34 L20,14 C20,9.581722 23.581722,6 28,6 Z" />
    <rect x="38" y="6" width="4" height="28" rx="2" />
    <rect x="44" y="6" width="4" height="28" rx="2" />
    <path d="M56,18 L60,18 L60,30 C60,32.209139 61.790861,34 64,34 L68,34 L68,38 L64,38 C59.581722,38 56,34.418278 56,30 L56,18 Z" />
    <path d="M70,6 L74,6 L74,14 L84,14 L84,18 L74,18 L74,26 C74,28.209139 75.790861,30 78,30 L86,30 L86,34 L78,34 C73.581722,34 70,30.418278 70,26 L70,6 Z" />
    <path d="M96,8 C100.418278,8 104,11.581722 104,16 L104,26 C104,30.418278 100.418278,34 96,34 C91.581722,34 88,30.418278 88,26 L88,16 C88,11.581722 91.581722,8 96,8 Z M96,12 C93.790861,12 92,13.790861 92,16 L92,26 C92,28.209139 93.790861,30 96,30 C98.209139,30 100,28.209139 100,26 L100,16 C100,13.790861 98.209139,12 96,12 Z" />
    <path d="M112,8 L116,8 L116,24 C116,26.209139 114.209139,28 112,28 C109.790861,28 108,26.209139 108,24 L108,8 L112,8 Z" />
  </g>
  <circle cx="112" cy="32" r="2" fill="#F97316" />
</svg>